<svg xmlns="http://www.w3.org/2000/svg"  viewBox="0 0 64 64" width="64px" height="64px"><path d="M 41.316406 7.9882812 C 35.21032 7.8538497 26.751078 12.154266 18.978516 19.853516 C 11.589516 27.171516 7 35.570391 7 41.775391 C 7 44.296391 7.7873906 46.408813 9.2753906 47.882812 C 9.4423906 48.047812 9.6305469 48.185031 9.8105469 48.332031 L 19.220703 57.712891 L 19.224609 57.708984 L 21.167969 58.175781 C 22.401969 58.471781 23.686719 58.615234 25.011719 58.615234 C 31.881719 58.615234 39.804594 54.708437 46.933594 47.648438 C 55.866594 38.799437 60.434969 27.943938 57.792969 21.835938 L 56.998047 20 L 56.964844 20.013672 L 56.984375 19.994141 L 47.378906 10.419922 C 47.324906 10.362922 47.275703 10.299141 47.220703 10.244141 C 45.734297 8.7715156 43.705744 8.0408849 41.316406 7.9882812 z M 41.050781 11.986328 C 42.509781 11.986328 43.662297 12.354844 44.404297 13.089844 C 45.127297 13.805844 45.493141 14.903516 45.494141 16.353516 C 45.494141 16.947516 45.4305 17.580188 45.3125 18.242188 L 44.900391 18.376953 C 39.614391 20.117953 33.595625 24.073516 28.390625 29.228516 C 23.931625 33.645516 20.404281 38.616141 18.363281 43.244141 C 20.694281 42.569141 22.811641 41.398937 24.556641 40.210938 C 26.327641 37.455937 28.580078 34.671312 31.205078 32.070312 C 35.162078 28.151312 39.571391 25.025734 43.650391 23.177734 C 41.794391 27.141734 38.648125 31.524594 34.703125 35.433594 C 32.389125 37.725594 30.048203 39.631547 27.783203 41.185547 C 24.453203 43.767547 19.295234 46.044141 15.740234 46.119141 C 14.144234 46.174141 12.878844 45.823016 12.089844 45.041016 C 11.365844 44.325016 11 43.225391 11 41.775391 C 11 36.756391 15.336016 29.088312 21.791016 22.695312 C 29.000016 15.555312 36.504781 11.986328 41.050781 11.986328 z M 37.25 13.849609 C 36.298401 14.003052 35.513283 14.575477 35.0625 15.363281 C 34.285076 16.404748 33.276332 19.370329 32.859375 20.669922 C 32.849375 20.703922 32.839031 20.739391 32.832031 20.775391 C 32.727031 21.288391 32.277719 21.660156 31.761719 21.660156 C 31.158719 21.660156 30.667969 21.161875 30.667969 20.546875 C 30.667969 20.018875 31.034016 19.559078 31.541016 19.455078 L 31.136719 17.498047 C 30.036973 17.724918 29.174252 18.536952 28.832031 19.568359 C 27.948757 20.99589 27.044574 24.762366 26.857422 25.580078 C 26.761422 26.109078 26.30825 26.492188 25.78125 26.492188 C 25.17725 26.492187 24.685547 25.993906 24.685547 25.378906 C 24.685547 24.850906 25.053547 24.391109 25.560547 24.287109 L 25.15625 22.330078 C 24.223718 22.522319 23.465168 23.137571 23.044922 23.947266 L 23.039062 23.943359 C 21.712063 26.171359 21.517719 28.791391 21.386719 30.525391 C 21.353719 30.976391 21.323344 31.376031 21.277344 31.707031 C 21.203344 32.234031 20.740219 32.632812 20.199219 32.632812 C 19.596219 32.632813 19.105469 32.132578 19.105469 31.517578 C 19.105469 31.122578 19.304719 30.764547 19.636719 30.560547 L 18.591797 28.857422 C 17.797387 29.345698 17.278797 30.145225 17.144531 31.050781 L 17.142578 31.050781 C 17.141479 31.058875 17.141712 31.066133 17.140625 31.074219 C 17.132191 31.134226 17.128058 31.194981 17.123047 31.255859 C 16.86348 33.352575 17.003067 35.165906 17.123047 36.626953 C 17.200047 37.557953 17.265453 38.36125 17.189453 38.90625 C 17.117453 39.43325 16.654281 39.832031 16.113281 39.832031 C 15.509281 39.832031 15.017578 39.331797 15.017578 38.716797 C 15.017578 38.413797 15.135609 38.130922 15.349609 37.919922 L 13.943359 36.498047 C 13.348359 37.088047 13.019531 37.875797 13.019531 38.716797 C 13.019531 40.433797 14.408281 41.830078 16.113281 41.830078 C 17.646281 41.830078 18.960922 40.691594 19.169922 39.183594 C 19.275922 38.419594 19.201234 37.513844 19.115234 36.464844 C 19.063766 35.837463 19.01256 35.132327 18.988281 34.380859 C 19.360889 34.541411 19.768918 34.630859 20.199219 34.630859 C 21.731219 34.630859 23.046812 33.492422 23.257812 31.982422 C 23.308813 31.616422 23.341906 31.172828 23.378906 30.673828 C 23.444177 29.803556 23.526717 28.762765 23.748047 27.705078 C 24.293203 28.188089 24.999792 28.490234 25.78125 28.490234 C 27.27625 28.490234 28.556453 27.416422 28.814453 25.982422 C 29.028146 25.057759 29.342228 23.867162 29.666016 22.820312 C 30.21802 23.336039 30.950966 23.658203 31.761719 23.658203 C 33.201719 23.658203 34.459391 22.643375 34.775391 21.234375 C 35.005425 20.52207 35.275847 19.802634 35.537109 19.101562 C 36.098465 19.676799 36.877799 20.035156 37.740234 20.035156 C 39.266234 20.035156 40.550969 18.937828 40.792969 17.423828 L 38.818359 17.107422 C 38.731359 17.646422 38.278234 18.037109 37.740234 18.037109 C 37.137234 18.037109 36.646484 17.538828 36.646484 16.923828 C 36.646484 16.380828 37.044359 15.907266 37.568359 15.822266 L 37.25 13.849609 z M 47.238281 26.980469 L 48.6875 28.357422 C 48.4695 28.587422 48.359906 28.886172 48.378906 29.201172 C 48.416906 29.815172 48.944063 30.296 49.539062 30.25 C 49.821062 30.233 50.104875 30.112734 50.296875 29.927734 C 50.483875 29.746734 50.570687 29.522719 50.554688 29.261719 C 50.543687 29.089719 50.509281 28.930047 50.363281 28.623047 L 52.169922 27.765625 C 52.407922 28.266625 52.521781 28.677672 52.550781 29.138672 C 52.603781 29.984672 52.2965 30.774281 51.6875 31.363281 C 51.1555 31.877281 50.417109 32.198141 49.662109 32.244141 C 49.600109 32.247141 49.537562 32.248047 49.476562 32.248047 C 49.171563 32.248047 48.881563 32.191422 48.601562 32.107422 C 48.655563 32.450422 48.711625 32.788375 48.765625 33.109375 C 49.029625 34.683375 49.183594 35.683578 49.058594 36.392578 C 48.768594 38.019578 47.647469 39.011281 45.980469 39.113281 C 45.919469 39.116281 45.859828 39.117187 45.798828 39.117188 C 45.247828 39.117188 44.751078 38.952063 44.330078 38.664062 C 44.354078 38.763062 44.380297 38.861453 44.404297 38.939453 C 44.913297 40.649453 44.977641 41.204828 44.431641 42.548828 L 44.431641 42.550781 C 44.430641 42.552781 44.428734 42.554641 44.427734 42.556641 C 44.405734 42.609641 44.390188 42.654938 44.367188 42.710938 L 44.333984 42.697266 C 43.813984 43.594266 42.989609 44.132359 41.974609 44.193359 C 41.911609 44.197359 41.847156 44.199219 41.785156 44.199219 C 41.269156 44.199219 40.785516 44.058125 40.353516 43.828125 C 40.333516 44.265125 40.320453 44.732516 40.314453 45.228516 C 40.294453 46.741516 39.026828 48.001656 37.423828 48.097656 C 37.361828 48.101656 37.297375 48.103516 37.234375 48.103516 C 36.346375 48.103516 35.544609 47.71175 34.974609 47.09375 C 34.792609 47.75775 34.640016 48.487891 34.541016 49.337891 C 34.366016 50.850891 33.151297 52.013516 31.654297 52.103516 C 31.219297 52.129516 30.79425 52.062922 30.40625 51.919922 C 29.98125 52.885922 29.176391 53.357234 28.650391 53.490234 L 28.40625 52.521484 L 28.132812 51.560547 C 28.278813 51.512547 28.729406 51.288234 28.691406 50.365234 C 28.515406 50.006234 28.405906 49.606594 28.378906 49.183594 C 28.326906 48.317594 28.638375 47.463891 29.234375 46.837891 L 30.681641 48.216797 C 30.463641 48.445797 30.354047 48.7455 30.373047 49.0625 C 30.411047 49.6745 30.939203 50.149422 31.533203 50.107422 C 32.060203 50.075422 32.490687 49.655422 32.554688 49.107422 C 32.849688 46.563422 33.471719 44.760641 34.511719 43.431641 L 34.548828 43.460938 C 34.674828 43.235937 34.818047 43.021031 34.998047 42.832031 L 36.445312 44.210938 C 36.227312 44.439937 36.119672 44.740641 36.138672 45.056641 C 36.176672 45.670641 36.708781 46.149516 37.300781 46.103516 C 37.843781 46.071516 38.3065 45.659078 38.3125 45.205078 C 38.3335 43.592078 38.435547 41.422188 38.810547 40.242188 L 38.820312 40.244141 C 38.957313 39.756141 39.195781 39.299734 39.550781 38.927734 L 40.998047 40.306641 C 40.780047 40.534641 40.672406 40.834391 40.691406 41.150391 C 40.728406 41.766391 41.253563 42.238266 41.851562 42.197266 C 42.092562 42.183266 42.396719 42.103156 42.636719 41.660156 C 42.910719 40.985156 42.877328 40.822719 42.486328 39.511719 C 41.784328 37.161719 42.263 34.964938 43.75 33.585938 C 43.753 33.581938 43.756766 33.577266 43.759766 33.572266 L 43.761719 33.574219 C 43.798719 33.540219 43.827234 33.50175 43.865234 33.46875 L 44.398438 34.083984 L 45.318359 34.822266 C 45.016359 35.199266 44.903844 36.137281 45.214844 36.738281 C 45.401844 37.097281 45.642422 37.133141 45.857422 37.119141 C 46.593422 37.074141 46.961891 36.752875 47.087891 36.046875 C 47.158891 35.641875 46.955016 34.422359 46.791016 33.443359 C 46.528016 31.870359 46.237297 30.112016 46.404297 28.791016 C 46.412297 28.718016 46.4245 28.646219 46.4375 28.574219 C 46.4455 28.526219 46.448984 28.474734 46.458984 28.427734 L 46.474609 28.429688 C 46.599609 27.891687 46.851281 27.386469 47.238281 26.980469 z"/></svg>